<?xml version="1.0" encoding="utf-8"?>
<!-- Generator: Adobe Illustrator 17.1.0, SVG Export Plug-In . SVG Version: 6.00 Build 0)  -->
<!DOCTYPE svg PUBLIC "-//W3C//DTD SVG 1.1//EN" "http://www.w3.org/Graphics/SVG/1.1/DTD/svg11.dtd">
<svg version="1.1" id="Layer_1" xmlns="http://www.w3.org/2000/svg" xmlns:xlink="http://www.w3.org/1999/xlink" x="0px" y="0px"
	 viewBox="38 38 24 24" enable-background="new 38 38 24 24" xml:space="preserve">
<g>
	<g>
		<path fill="#999999" d="M57.8,46.7C57.8,46.7,57.8,46.6,57.8,46.7C57.8,46.6,57.8,46.6,57.8,46.7c0-0.1-0.1-0.2-0.1-0.2l-7.4-7.4
			c0,0-0.1,0-0.1-0.1c0,0,0,0,0,0c0,0,0,0-0.1,0c0,0,0,0,0,0h-7.6c-0.2,0-0.3,0.1-0.3,0.3v19.6c0,0.2,0.1,0.3,0.3,0.3h15
			c0.2,0,0.3-0.1,0.3-0.3L57.8,46.7C57.8,46.7,57.8,46.7,57.8,46.7z M42.8,58.6V39.6h7v7.2c0,0.2,0.1,0.3,0.3,0.3h7.2v11.6H42.8z"/>
	</g>
	<rect x="45" y="48.8" fill="#999999" width="0.6" height="0.6"/>
	<rect x="47.1" y="48.8" fill="#999999" width="7.9" height="0.6"/>
	<rect x="47.1" y="51" fill="#999999" width="7.9" height="0.6"/>
	<rect x="45" y="51" fill="#999999" width="0.6" height="0.6"/>
	<rect x="45" y="53.2" fill="#999999" width="0.6" height="0.6"/>
	<rect x="47.1" y="53.2" fill="#999999" width="7.9" height="0.6"/>
	<rect x="45" y="55.4" fill="#999999" width="0.6" height="0.6"/>
	<rect x="47.1" y="55.4" fill="#999999" width="7.9" height="0.6"/>
</g>
</svg>
