<?xml version="1.0" encoding="utf-8"?>
<!-- Generator: Adobe Illustrator 17.1.0, SVG Export Plug-In . SVG Version: 6.00 Build 0)  -->
<!DOCTYPE svg PUBLIC "-//W3C//DTD SVG 1.1//EN" "http://www.w3.org/Graphics/SVG/1.1/DTD/svg11.dtd">
<svg version="1.1" id="Capa_1" xmlns="http://www.w3.org/2000/svg" xmlns:xlink="http://www.w3.org/1999/xlink" x="0px" y="0px"
	 viewBox="68 68 24 24" enable-background="new 68 68 24 24" xml:space="preserve">
<path fill="#999999" d="M92,88.7V73.1c0-0.5-0.4-0.9-0.9-0.9H80.2c-0.3,0-0.6-0.6-0.6-0.9v-0.1c0-0.5-0.4-0.9-0.9-0.9h-5.8
	c-0.5,0-0.9,0.4-0.9,0.9v0.1c0,0.2-0.2,0.9-0.6,0.9l0,0c-0.5,0-0.9,0.4-0.9,0.9v4.5h-1.8c0,0-0.9-0.1-0.5,0.9l2,10.1
	c0,0.5,0.4,0.9,0.9,0.9h20.7C92.1,89.6,92,88.7,92,88.7z M88.2,82.6c-2,1.9-3.6,4.4-4.1,5.6l-0.1,0.1l0,0H84l-2.9-3
	c0,0,0.9-0.8,0.9-0.8l1.6,1.3c0.6-0.7,2.2-2.4,4.3-3.8l0.3,0.5C88.3,82.5,88.3,82.6,88.2,82.6z M91,78.9v10.2l-2-10.9
	c-0.2-0.6-0.9-0.5-0.9-0.5H71.5v-3.4h19.4L91,78.9L91,78.9z"/>
</svg>
