<?xml version="1.0" encoding="utf-8"?>
<!-- Generator: Adobe Illustrator 17.1.0, SVG Export Plug-In . SVG Version: 6.00 Build 0)  -->
<!DOCTYPE svg PUBLIC "-//W3C//DTD SVG 1.1//EN" "http://www.w3.org/Graphics/SVG/1.1/DTD/svg11.dtd">
<svg version="1.1" id="Capa_1" xmlns="http://www.w3.org/2000/svg" xmlns:xlink="http://www.w3.org/1999/xlink" x="0px" y="0px"
	 viewBox="68 68 24 24" enable-background="new 68 68 24 24" xml:space="preserve">
<g>
	<path fill="#999999" d="M73.7,73.1h-5.2c-0.2,0-0.5,0.2-0.5,0.5v13.9c0,0.2,0.2,0.5,0.5,0.5h5.2c0.2,0,0.5-0.2,0.5-0.5V73.6
		C74.1,73.4,73.9,73.1,73.7,73.1z M73.2,87h-4.4v-5.4h2.8v-1.1h-2.8v-0.6h2.8v-1.1h-2.8V74h4.4C73.2,74,73.2,87,73.2,87z"/>
	<path fill="#999999" d="M80.6,73.1h-5.2c-0.3,0-0.5,0.2-0.5,0.5v13.9c0,0.2,0.2,0.5,0.5,0.5h5.2c0.2,0,0.5-0.2,0.5-0.5V73.6
		C81,73.4,80.8,73.1,80.6,73.1z M80.1,87h-4.4V74h4.4V87z"/>
	<path fill="#999999" d="M92,85.3l-5-13c-0.1-0.1-0.2-0.2-0.2-0.2c-0.2-0.1-0.2-0.1-0.4-0.1l-4.9,1.8c-0.2,0.1-0.3,0.3-0.2,0.5l5,13
		c0.1,0.2,0.2,0.3,0.4,0.3c0.1,0,0.1,0,0.2,0l4.9-1.8c0.1-0.1,0.2-0.2,0.2-0.2C92,85.6,92,85.4,92,85.3z M86.9,86.8l-2.1-5.4
		l2.7-1.1l-0.4-1l-2.7,1.1l-0.4-0.9l2.7-1.1l-0.4-1l-2.7,1l-1.5-3.8l4.1-1.5L91,85.3L86.9,86.8z"/>
	<rect x="69.5" y="74.9" fill="#999999" width="3.1" height="2.1"/>
	<rect x="76.4" y="74.9" fill="#999999" width="3.1" height="2.1"/>
	<rect x="76.9" y="78.8" fill="#999999" width="2.1" height="5.8"/>
	<circle fill="#999999" cx="84.9" cy="75.6" r="1.5"/>
</g>
</svg>
