<?xml version="1.0" encoding="utf-8"?>
<!-- Generator: Adobe Illustrator 17.1.0, SVG Export Plug-In . SVG Version: 6.00 Build 0)  -->
<!DOCTYPE svg PUBLIC "-//W3C//DTD SVG 1.1//EN" "http://www.w3.org/Graphics/SVG/1.1/DTD/svg11.dtd">
<svg version="1.1" id="Capa_1" xmlns="http://www.w3.org/2000/svg" xmlns:xlink="http://www.w3.org/1999/xlink" x="0px" y="0px"
	 viewBox="0 0 23.6 33" enable-background="new 0 0 23.6 33" xml:space="preserve">
<path fill="#999999" d="M2.2,10c0,0-0.1-2.6,3.4-2.7h1.9l0.7,1.1l0.7-1.1h1.7c0,0,3.2,0,3.4,2.7v3.5h-2.1v-3l-0.7,0v3H5l0-3H4.3v3
	H2.2V10z M8.3,6.5c1.4,0,2.5-1.1,2.5-2.5S9.6,1.6,8.3,1.6S5.8,2.7,5.8,4C5.8,5.4,6.9,6.5,8.3,6.5z M5,33h6.3l3.1-16H1.9L5,33z
	 M23.6,3.4c0,1.8-2,3.2-4.4,3.3c-1.3,1.1-3.6,1.7-3.6,1.7c1.1-1,1.2-1.6,1.1-2c-1.6-0.6-2.6-1.7-2.6-3C14,1.5,16.2,0,18.8,0
	S23.6,1.5,23.6,3.4z M21.6,4.2c0-0.2-0.1-0.3-0.3-0.3h-5.1C16.1,3.9,16,4,16,4.2s0.1,0.3,0.3,0.3h5.1C21.5,4.5,21.6,4.4,21.6,4.2z
	 M21.6,2.6c0-0.2-0.1-0.3-0.3-0.3h-5.1c-0.2,0-0.3,0.1-0.3,0.3s0.1,0.3,0.3,0.3h5.1C21.5,2.9,21.6,2.7,21.6,2.6z M0,16.3h16.2v-2.4
	H0V16.3z"/>
</svg>
