<?xml version="1.0" encoding="utf-8"?>
<!-- Generator: Adobe Illustrator 17.1.0, SVG Export Plug-In . SVG Version: 6.00 Build 0)  -->
<!DOCTYPE svg PUBLIC "-//W3C//DTD SVG 1.1//EN" "http://www.w3.org/Graphics/SVG/1.1/DTD/svg11.dtd">
<svg version="1.1" id="Capa_1" xmlns="http://www.w3.org/2000/svg" xmlns:xlink="http://www.w3.org/1999/xlink" x="0px" y="0px"
	 viewBox="68 68 24 24" enable-background="new 68 68 24 24" xml:space="preserve">
<path fill="#999999" d="M73.5,75.6c0,0-0.1-1.8,2.3-1.8h1.3l0.5,0.7l0.5-0.7h1.2c0,0,2.2,0,2.3,1.8V78h-1.4v-2h-0.5v2h-4.2v-2h-0.5
	v2h-1.4V75.6z M77.6,73.2c1,0,1.7-0.7,1.7-1.7s-0.8-1.6-1.7-1.6s-1.7,0.7-1.7,1.6C75.9,72.5,76.7,73.2,77.6,73.2z M75.4,91.2h4.3
	l2.1-10.9h-8.5L75.4,91.2z M88,71.1c0,1.2-1.4,2.2-3,2.2c-0.9,0.7-2.4,1.2-2.4,1.2c0.7-0.7,0.8-1.1,0.7-1.4c-1.1-0.4-1.8-1.2-1.8-2
	c-0.1-1.3,1.4-2.3,3.2-2.3S88,69.8,88,71.1z M86.7,71.6c0-0.1-0.1-0.2-0.2-0.2H83c-0.1,0-0.1,0.1-0.1,0.2s0.1,0.2,0.2,0.2h3.5
	C86.6,71.8,86.7,71.8,86.7,71.6z M86.7,70.6c0-0.1-0.1-0.2-0.2-0.2H83c-0.1,0-0.2,0.1-0.2,0.2s0.1,0.2,0.2,0.2h3.5
	C86.6,70.8,86.7,70.6,86.7,70.6z M72,79.9h11v-1.6H72V79.9z"/>
</svg>
