<?xml version="1.0" encoding="utf-8"?>
<!-- Generator: Adobe Illustrator 17.1.0, SVG Export Plug-In . SVG Version: 6.00 Build 0)  -->
<!DOCTYPE svg PUBLIC "-//W3C//DTD SVG 1.1//EN" "http://www.w3.org/Graphics/SVG/1.1/DTD/svg11.dtd">
<svg version="1.1" id="Capa_1" xmlns="http://www.w3.org/2000/svg" xmlns:xlink="http://www.w3.org/1999/xlink" x="0px" y="0px"
	 viewBox="68 68 24 24" enable-background="new 68 68 24 24" xml:space="preserve">
<g>
	<path fill="#999999" d="M86.7,80.2c0.4-0.9,1.7-3.3,1.7-3.3s-2-2.3-2.7-3c-0.2-0.2-0.4-0.2-0.6-0.2l0,0c-0.2,0-0.4-0.1-0.7,0
		c-0.1,0.1-0.5,0.6-0.5,0.6L84,75l-0.7-0.4l-0.5,1.1c0,0-0.3-0.6-0.7-1.2c-0.1-0.1-0.6,0.1-0.6,0c0,0,0.3-0.6,0.2-0.7
		c-0.1-0.2-0.2-0.3-0.2-0.3c0,0-0.3-0.4-1.5,0.2c-0.8,0.2-1.6,0.3-2.3,0.5c-0.5-0.6-1-1.2-1.4-1.9c-0.3-0.5-0.7-0.6-1.1-0.4L72,68.1
		c-0.1-0.1-0.3-0.1-0.3,0c-0.1,0.1-0.1,0.3,0,0.3l3.1,3.7c-0.2,0.3-0.3,0.6-0.1,1c0.5,0.9,2.4,3.3,2.4,3.3s1.7-0.5,2.9-0.8
		c0.1,0.3,0.3,0.5,0.3,0.5l0.2,2.1l-1.4,7h1.4c0,1.9,0,3.8,0,5.8c0,1.3,2,1.3,2,0c0-1.9,0-3.8,0-5.8H83c0,2.1,0.5,4.2,1.6,6.1
		c0.6,1.2,2.4,0.1,1.8-1c-0.9-1.5-1.2-3.3-1.3-5.1h1.4l-1.1-4.7C85.9,80.8,86.5,80.8,86.7,80.2z M85.2,79.2L85,78.5l0,0
		c0-1.2,0.3-1.2,0.3-2.3V76c0.3,0.3,0.6,0.7,0.9,1.1C85.9,77.8,85.5,78.5,85.2,79.2z"/>
	<path fill="#999999" d="M82.8,70.8c-0.1,0.7,1.4,1.4,1.4,1.4c0-0.1,0-0.2,0.1-0.3c0,0,0,0.1,0.1,0.2c0,0.1,0.1,0.2,0.2,0.3
		c0.1,0.1,0.2,0.2,0.3,0.3s0.3,0.1,0.4,0.1c0.2,0,0.3,0,0.4-0.1s0.2-0.2,0.2-0.3c0,0,0-0.1,0-0.2c0,0,0,0,0-0.1s0,0,0-0.1
		c0,0,0,0-0.1,0s0,0-0.1,0s-0.1,0-0.1,0c-0.1,0-0.2,0-0.2,0s-0.1,0-0.1,0c0,0,0,0,0-0.1c0,0-0.1-0.2-0.2-0.3c0-0.1-0.1-0.3-0.2-0.5
		s-0.1-0.3-0.2-0.5c-0.1-0.2-0.2-0.4-0.3-0.6c0-0.1-0.1-0.2-0.2-0.3c0,0-0.1-0.1-0.2-0.2s-0.2-0.1-0.3-0.1c-0.1,0-0.2,0-0.3,0
		c-0.1,0-0.1,0.1-0.2,0.2c0,0.1-0.1,0.2,0,0.4c0,0,0,0-0.1,0c-0.9-0.3-1.7,0.1-2,1C81.1,71,82.3,71.7,82.8,70.8z"/>
</g>
</svg>
