<?xml version="1.0" encoding="utf-8"?>
<!-- Generator: Adobe Illustrator 17.1.0, SVG Export Plug-In . SVG Version: 6.00 Build 0)  -->
<!DOCTYPE svg PUBLIC "-//W3C//DTD SVG 1.1//EN" "http://www.w3.org/Graphics/SVG/1.1/DTD/svg11.dtd">
<svg version="1.1" id="Capa_1" xmlns="http://www.w3.org/2000/svg" xmlns:xlink="http://www.w3.org/1999/xlink" x="0px" y="0px"
	 viewBox="68 68 24 24" enable-background="new 68 68 24 24" xml:space="preserve">
<g>
	<path fill="#999999" d="M85.9,79.2c0.3-0.7,1.4-2.7,1.4-2.7s-1.7-1.9-2.2-2.5c-0.2-0.2-0.3-0.2-0.5-0.2l0,0c-0.2,0-0.3-0.1-0.6,0
		c-0.1,0.1-0.4,0.5-0.4,0.5l0.1,0.6l-0.6-0.3l-0.4,0.9c0,0-0.2-0.5-0.6-1c-0.1-0.1-0.5,0.1-0.5,0c0,0,0.2-0.5,0.2-0.6
		c-0.1-0.2-0.2-0.2-0.2-0.2s-0.2-0.3-1.2,0.2c-0.7,0.2-1.3,0.2-1.9,0.4c-0.4-0.5-0.8-1-1.2-1.6c-0.2-0.4-0.6-0.5-0.9-0.3l-2.7-3.2
		c-0.1-0.1-0.2-0.1-0.2,0c-0.1,0.1-0.1,0.2,0,0.2l2.6,3.1c-0.2,0.2-0.2,0.5-0.1,0.8c0.4,0.7,2,2.7,2,2.7s1.4-0.4,2.4-0.7
		c0.1,0.2,0.2,0.4,0.2,0.4l0.2,1.7l-1.2,5.8h1.2c0,1.6,0,3.2,0,4.8c0,1.1,1.7,1.1,1.7,0c0-1.6,0-3.2,0-4.8h0.4
		c0,1.7,0.4,3.5,1.3,5.1c0.5,1,2,0.1,1.5-0.8c-0.7-1.2-1-2.7-1.1-4.2h1.2l-0.9-3.9C85.2,79.7,85.7,79.7,85.9,79.2z M84.7,78.4
		l-0.2-0.6l0,0c0-1,0.2-1,0.2-1.9v-0.2c0.2,0.2,0.5,0.6,0.7,0.9C85.2,77.2,84.9,77.8,84.7,78.4z"/>
	<path fill="#999999" d="M82.7,71.4c-0.1,0.6,1.2,1.2,1.2,1.2c0-0.1,0-0.2,0.1-0.2c0,0,0,0.1,0.1,0.2c0,0.1,0.1,0.2,0.2,0.2
		c0.1,0.1,0.2,0.2,0.2,0.2c0.1,0.1,0.2,0.1,0.3,0.1c0.2,0,0.2,0,0.3-0.1c0.1-0.1,0.2-0.2,0.2-0.2c0,0,0-0.1,0-0.2c0,0,0,0,0-0.1
		s0,0,0-0.1c0,0,0,0-0.1,0s0,0-0.1,0c-0.1,0-0.1,0-0.1,0c-0.1,0-0.2,0-0.2,0h-0.1c0,0,0,0,0-0.1c0,0-0.1-0.2-0.2-0.2
		c0-0.1-0.1-0.2-0.2-0.4c-0.1-0.2-0.1-0.2-0.2-0.4c-0.1-0.2-0.2-0.3-0.2-0.5c0-0.1-0.1-0.2-0.2-0.2c0,0-0.1-0.1-0.2-0.2
		c-0.1-0.1-0.2-0.1-0.2-0.1c-0.1,0-0.2,0-0.2,0c-0.1,0-0.1,0.1-0.2,0.2c0,0.1-0.1,0.2,0,0.3c0,0,0,0-0.1,0c-0.7-0.2-1.4,0.1-1.7,0.8
		C81.3,71.6,82.2,72.2,82.7,71.4z"/>
</g>
</svg>
