<?xml version="1.0" encoding="utf-8"?>
<!-- Generator: Adobe Illustrator 17.1.0, SVG Export Plug-In . SVG Version: 6.00 Build 0)  -->
<!DOCTYPE svg PUBLIC "-//W3C//DTD SVG 1.1//EN" "http://www.w3.org/Graphics/SVG/1.1/DTD/svg11.dtd">
<svg version="1.1" id="Capa_1" xmlns="http://www.w3.org/2000/svg" xmlns:xlink="http://www.w3.org/1999/xlink" x="0px" y="0px"
	 viewBox="68 67.2 24 25.6" enable-background="new 68 67.2 24 25.6" xml:space="preserve">
<path fill="#999999" d="M76,76.8h3.2V80H76V76.8z M80.8,76.8H84V80h-3.2V76.8z M85.6,76.8h3.2V80h-3.2V76.8z M71.2,86.4h3.2v3.2
	h-3.2V86.4z M76,86.4h3.2v3.2H76V86.4z M80.8,86.4H84v3.2h-3.2V86.4z M76,81.6h3.2v3.2H76V81.6z M80.8,81.6H84v3.2h-3.2V81.6z
	 M85.6,81.6h3.2v3.2h-3.2V81.6z M71.2,81.6h3.2v3.2h-3.2V81.6z M88.8,67.2v1.6h-3.2v-1.6H74.4v1.6h-3.2v-1.6H68v25.6h24V67.2H88.8z
	 M90.4,91.2H69.6V73.6h20.8V91.2z"/>
</svg>
