<?xml version="1.0" encoding="utf-8"?>
<!-- Generator: Adobe Illustrator 17.1.0, SVG Export Plug-In . SVG Version: 6.00 Build 0)  -->
<!DOCTYPE svg PUBLIC "-//W3C//DTD SVG 1.1//EN" "http://www.w3.org/Graphics/SVG/1.1/DTD/svg11.dtd">
<svg version="1.1" id="Capa_1" xmlns="http://www.w3.org/2000/svg" xmlns:xlink="http://www.w3.org/1999/xlink" x="0px" y="0px"
	 viewBox="68 68 24 24" enable-background="new 68 68 24 24" xml:space="preserve">
<path fill="#999999" d="M76.9,77.5h2.5V80h-2.5V77.5z M80.6,77.5h2.5V80h-2.5V77.5z M84.4,77.5h2.5V80h-2.5V77.5z M73.2,85h2.5v2.5
	h-2.5V85z M76.9,85h2.5v2.5h-2.5V85z M80.6,85h2.5v2.5h-2.5V85z M76.9,81.2h2.5v2.5h-2.5V81.2z M80.6,81.2h2.5v2.5h-2.5V81.2z
	 M84.4,81.2h2.5v2.5h-2.5V81.2z M73.2,81.2h2.5v2.5h-2.5V81.2z M86.8,70.1v1.2h-2.5v-1.2h-8.7v1.2h-2.5v-1.2h-2.5v19.9h18.7V70.1
	H86.8z M88.1,88.7H71.9V75h16.2V88.7L88.1,88.7z"/>
</svg>
